<svg xmlns="http://www.w3.org/2000/svg" width="640" height="360" viewBox="0 0 640 360" role="img" aria-label="Sidebar dashboard layout desktop preview">
  <rect width="640" height="360" fill="#f8fafc"/>
  <rect x="0" y="0" width="640" height="54" fill="#ffffff"/>
  <rect x="28" y="16" width="120" height="22" rx="5" fill="#059669"/>
  <rect x="480" y="14" width="38" height="26" rx="6" fill="#f4f4f5"/>
  <rect x="528" y="14" width="72" height="26" rx="6" fill="#e4e4e7"/>
  <rect x="28" y="78" width="160" height="236" rx="8" fill="#ffffff" stroke="#d4d4d8"/>
  <rect x="48" y="106" width="80" height="12" rx="4" fill="#71717a"/>
  <rect x="48" y="140" width="120" height="28" rx="6" fill="#d1fae5"/>
  <rect x="48" y="180" width="120" height="28" rx="6" fill="#f4f4f5"/>
  <rect x="220" y="78" width="374" height="118" rx="8" fill="#ffffff" stroke="#d4d4d8"/>
  <rect x="244" y="108" width="132" height="18" rx="5" fill="#18181b"/>
  <rect x="244" y="140" width="248" height="12" rx="6" fill="#71717a"/>
  <rect x="244" y="164" width="96" height="28" rx="6" fill="#dc2626"/>
  <rect x="220" y="222" width="110" height="78" rx="8" fill="#ffffff" stroke="#d4d4d8"/>
  <rect x="352" y="222" width="110" height="78" rx="8" fill="#ffffff" stroke="#d4d4d8"/>
  <rect x="484" y="222" width="110" height="78" rx="8" fill="#ffffff" stroke="#d4d4d8"/>
</svg>
