<svg xmlns="http://www.w3.org/2000/svg" width="640" height="360" viewBox="0 0 640 360" role="img" aria-label="Topnav dashboard layout desktop preview">
  <rect width="640" height="360" fill="#f8fafc"/>
  <rect x="0" y="0" width="640" height="54" fill="#ffffff"/>
  <rect x="28" y="16" width="118" height="22" rx="5" fill="#059669"/>
  <rect x="188" y="13" width="104" height="28" rx="6" fill="#d1fae5"/>
  <rect x="304" y="13" width="86" height="28" rx="6" fill="#f4f4f5"/>
  <rect x="482" y="14" width="38" height="26" rx="6" fill="#f4f4f5"/>
  <rect x="530" y="14" width="72" height="26" rx="6" fill="#e4e4e7"/>
  <rect x="36" y="80" width="150" height="14" rx="4" fill="#d4d4d8"/>
  <rect x="36" y="116" width="568" height="96" rx="8" fill="#ffffff" stroke="#d4d4d8"/>
  <rect x="64" y="144" width="142" height="18" rx="5" fill="#18181b"/>
  <rect x="64" y="176" width="286" height="12" rx="6" fill="#71717a"/>
  <rect x="36" y="238" width="172" height="76" rx="8" fill="#ffffff" stroke="#d4d4d8"/>
  <rect x="234" y="238" width="172" height="76" rx="8" fill="#ffffff" stroke="#d4d4d8"/>
  <rect x="432" y="238" width="172" height="76" rx="8" fill="#ffffff" stroke="#d4d4d8"/>
</svg>
