<svg xmlns="http://www.w3.org/2000/svg" width="320" height="220" viewBox="0 0 320 220" role="img" aria-label="Sidebar dashboard layout mobile preview">
  <rect width="320" height="220" fill="#f8fafc"/>
  <rect x="0" y="0" width="320" height="48" fill="#ffffff"/>
  <rect x="16" y="13" width="28" height="22" rx="5" fill="#059669"/>
  <rect x="56" y="12" width="42" height="24" rx="6" fill="#e4e4e7"/>
  <rect x="222" y="12" width="28" height="24" rx="6" fill="#f4f4f5"/>
  <rect x="258" y="12" width="28" height="24" rx="6" fill="#f4f4f5"/>
  <rect x="16" y="68" width="120" height="14" rx="4" fill="#d4d4d8"/>
  <rect x="16" y="98" width="288" height="76" rx="8" fill="#ffffff" stroke="#d4d4d8"/>
  <rect x="36" y="120" width="120" height="14" rx="4" fill="#18181b"/>
  <rect x="36" y="148" width="86" height="26" rx="6" fill="#dc2626"/>
  <rect x="16" y="188" width="86" height="20" rx="6" fill="#ecfdf5"/>
  <rect x="114" y="188" width="86" height="20" rx="6" fill="#fef3c7"/>
  <rect x="212" y="188" width="86" height="20" rx="6" fill="#e0f2fe"/>
</svg>
