<svg xmlns="http://www.w3.org/2000/svg" width="640" height="360" viewBox="0 0 640 360" role="img" aria-label="Marketing layout desktop preview">
  <rect width="640" height="360" fill="#f8fafc"/>
  <rect x="0" y="0" width="640" height="54" fill="#ffffff"/>
  <rect x="34" y="17" width="124" height="20" rx="5" fill="#059669"/>
  <rect x="236" y="18" width="48" height="18" rx="5" fill="#e4e4e7"/>
  <rect x="296" y="18" width="56" height="18" rx="5" fill="#e4e4e7"/>
  <rect x="512" y="14" width="38" height="26" rx="6" fill="#f4f4f5"/>
  <rect x="560" y="14" width="48" height="26" rx="6" fill="#18181b"/>
  <rect x="48" y="96" width="112" height="18" rx="5" fill="#d1fae5"/>
  <rect x="48" y="134" width="314" height="24" rx="6" fill="#18181b"/>
  <rect x="48" y="170" width="286" height="12" rx="6" fill="#71717a"/>
  <rect x="48" y="192" width="248" height="12" rx="6" fill="#a1a1aa"/>
  <rect x="48" y="232" width="128" height="34" rx="7" fill="#18181b"/>
  <rect x="402" y="96" width="176" height="170" rx="8" fill="#ffffff" stroke="#d4d4d8"/>
  <rect x="424" y="126" width="112" height="16" rx="4" fill="#18181b"/>
  <rect x="424" y="166" width="132" height="24" rx="6" fill="#ecfdf5" stroke="#a7f3d0"/>
  <rect x="424" y="204" width="132" height="24" rx="6" fill="#fef3c7" stroke="#fde68a"/>
  <rect x="0" y="328" width="640" height="32" fill="#ffffff"/>
</svg>
